<?xml version="1.0" encoding="utf-8"?>
<!-- Generator: Adobe Illustrator 28.1.0, SVG Export Plug-In . SVG Version: 6.00 Build 0)  -->
<svg version="1.1" id="Layer_1" xmlns="http://www.w3.org/2000/svg" xmlns:xlink="http://www.w3.org/1999/xlink" x="0px" y="0px"
	 viewBox="0 0 32.5 26.6" style="enable-background:new 0 0 32.5 26.6;" xml:space="preserve">
<style type="text/css">
	.st0{fill:#231F20;}
</style>
<path class="st0" d="M17,1.2C17,1,5.1,1.9,5.3,1.9c3.8-0.9,9.6-1.3,13.1-1c1,0.1,1.9,0.4,2.8,1c0.2-0.1,0.5-0.3,0.8-0.4
	c0.7-0.3,1.6-0.4,2.5,0.3c0.8,0.7,1.5,1.5,2.1,2.4c0.1,0.2,0.2,0.4,0.2,0.5c0.1,0.2,0.1,0.4,0.1,0.5c0,0.1-4.3,11.5-4.3,11.6
	c-0.1,0.1-0.3-5-0.4-5c-0.3,0.1,3.8-6,3.6-6.1c-0.4-0.2-0.8-0.2-1.2-0.2c-0.2,0-0.4,0-0.6,0.1l-0.2,0c-0.3,0-0.6,0.1-1,0.1
	c-0.9,0-1.5-0.4-1.8-0.9c-0.1-0.1-0.1-0.2-0.2-0.3c-0.2,0.1-0.4,0.1-0.6,0.2c-0.7,0.2-1.6,0.4-2.4,0.3C14.1,5,8.7,4,5.3,2.8
	C5.1,2.8,4.9,2.6,4.9,2.3 M21.6,3.9c0,0.1,0.1,0.3,0.2,0.4c0.1,0.2,0.4,0.4,0.9,0.4c0.3,0,0.7,0,0.9-0.1l0.2,0
	c0.2,0,0.4-0.1,0.6-0.1c0.4,0,0.8,0,1.2,0.1c-0.3-0.6-1-1.5-1.8-2.1c-0.5-0.4-1-0.3-1.5-0.1c-0.2,0.1-0.5,0.2-0.7,0.4L21.6,3.9z
	 M20.7,2.7c-0.1-0.1-0.3-0.2-0.4-0.3C19.7,2.2,19,2,18.4,1.9c-2.8-0.3-7.3-0.1-10.8,0.6c3.2,0.9,7.3,1.6,10.1,1.6
	c0.7,0,1.5-0.1,2.1-0.3c0.3-0.1,0.6-0.2,0.8-0.2l0,0L20.7,2.7L20.7,2.7z M26.3,4.8L26.3,4.8L26.3,4.8z M21.6,3.8L21.6,3.8L21.6,3.8
	L21.6,3.8z"/>
<path class="st0" d="M16.6,16.5c0.2,0.4,0.3,1.2,0,1.9c-0.1,0.2-0.2,0.4-0.4,0.5c-0.6,0.3-1.3-0.5-2.4-0.7c-0.5-0.1-1.3-0.1-2.3,0.5
	c-0.2-0.1-0.7-0.3-0.8-0.7c-0.3-0.8,0.3-1.6,0.7-2C12.8,14.7,15.9,15.1,16.6,16.5z M13.9,9c0.3,0.1,0.4,0.4,0.3,0.6c0,0,0,0,0,0
	l-0.5,1.5c-0.1,0.3-0.4,0.4-0.6,0.3c-0.3-0.1-0.4-0.4-0.3-0.6c0,0,0,0,0,0l0.5-1.5C13.3,9.1,13.6,8.9,13.9,9 M8,7.3
	c0.3,0.1,0.4,0.4,0.3,0.6c0,0-1,1.4-1,1.4l0,1.6c-0.1,0.3-0.4,0.4-0.6,0.3s-0.4-0.4-0.3-0.6c0,0,0,0,0,0l1-3C7.5,7.3,7.8,7.2,8,7.3
	 M18.9,16.2c-0.5-2.7-3.2-4.5-5.9-3.9c-1.6,0.3-3,1.4-3.6,2.9c-1.9-0.2-3.7-1.4-3.9,0.6c-0.2,1.9,1.2,6.2,3.1,6.4c0.1,0,0.3,0,0.4,0
	h9.5c1.7,0,4.9-6.1,4.9-7.8C23.3,12.9,20.4,16.4,18.9,16.2"/>
<path class="st0" d="M8.6,8c0,0-1,1.4-1,1.4l0,1.6"/>
<path class="st0" d="M19.2,8.6c0,0-1,1.4-1,1.4l0,1.6c-0.1,0.3-0.4,0.4-0.6,0.3s-0.4-0.4-0.3-0.6c0,0,0,0,0,0l1-3
	c0.1-0.3,0.4-0.4,0.6-0.3"/>
<path class="st0" d="M19.6,8.8c0,0-1,1.4-1,1.4l0,1.6"/>
</svg>
